<?xml version="1.0" encoding="utf-8"?>
<!-- Generator: Adobe Illustrator 28.0.0, SVG Export Plug-In . SVG Version: 6.00 Build 0)  -->
<svg version="1.1" id="Layer_1" xmlns="http://www.w3.org/2000/svg" xmlns:xlink="http://www.w3.org/1999/xlink" x="0px" y="0px"
	 viewBox="0 0 512 512" style="enable-background:new 0 0 512 512;" xml:space="preserve">
<style type="text/css">
	.st0{fill:#FF0000;stroke:#FFFFFF;stroke-width:0.9997;stroke-miterlimit:20.0003;}
	.st1{fill:none;stroke:#FFFFFF;stroke-width:0.9997;stroke-miterlimit:20.0003;}
	.st2{fill:#FF0000;stroke:#FFFFFF;stroke-width:2.9991;stroke-miterlimit:20.0003;}
</style>
<g id="Layer_1_00000105406291256767882310000017686799646277940608_">
	<g id="p_00000039097515978644623380000002118472008988939416_">
		<g>
			<path class="st0" d="M256,259.2l41.5,210c0,57.1-83,57.1-83,0L256,259.2z"/>
			<path class="st1" d="M256,259.2l41.5,210c0,57.1-83,57.1-83,0L256,259.2z"/>
		</g>
		<g>
			<path class="st0" d="M254.8,258.9l-42.1,209.8c-21.8,52.7-98.5,21-76.7-31.8L254.8,258.9z"/>
			<path class="st1" d="M254.8,258.9l-42.1,209.8c-21.8,52.7-98.5,21-76.7-31.8L254.8,258.9z"/>
		</g>
		<g>
			<path class="st0" d="M253.8,258.2L134.6,436c-40.3,40.3-99-18.3-58.7-58.7L253.8,258.2z"/>
			<path class="st1" d="M253.8,258.2L134.6,436c-40.3,40.3-99-18.3-58.7-58.7L253.8,258.2z"/>
		</g>
		<g>
			<path class="st0" d="M253.1,257.2L75,375.9c-52.7,21.8-84.5-54.8-31.8-76.7L253.1,257.2z"/>
			<path class="st1" d="M253.1,257.2L75,375.9c-52.7,21.8-84.5-54.8-31.8-76.7L253.1,257.2z"/>
		</g>
		<g>
			<path class="st0" d="M252.8,256L42.9,297.5c-57.1,0-57.1-83,0-83L252.8,256z"/>
			<path class="st1" d="M252.8,256L42.9,297.5c-57.1,0-57.1-83,0-83L252.8,256z"/>
		</g>
		<g>
			<path class="st0" d="M253.1,254.8L43.2,212.7c-52.7-21.8-21-98.5,31.8-76.7L253.1,254.8z"/>
			<path class="st1" d="M253.1,254.8L43.2,212.7c-52.7-21.8-21-98.5,31.8-76.7L253.1,254.8z"/>
		</g>
		<g>
			<path class="st0" d="M253.8,253.8L76,134.6c-40.3-40.3,18.3-99,58.7-58.7L253.8,253.8z"/>
			<path class="st1" d="M253.8,253.8L76,134.6c-40.3-40.3,18.3-99,58.7-58.7L253.8,253.8z"/>
		</g>
		<g>
			<path class="st0" d="M254.8,253.1L136.1,75c-21.8-52.7,54.8-84.5,76.7-31.8L254.8,253.1z"/>
			<path class="st1" d="M254.8,253.1L136.1,75c-21.8-52.7,54.8-84.5,76.7-31.8L254.8,253.1z"/>
		</g>
		<g>
			<path class="st0" d="M256,252.8L214.5,42.9c0-57.1,83-57.1,83,0L256,252.8z"/>
			<path class="st1" d="M256,252.8L214.5,42.9c0-57.1,83-57.1,83,0L256,252.8z"/>
		</g>
		<g>
			<path class="st0" d="M257.2,253.1l42.1-209.8c21.8-52.7,98.5-21,76.7,31.8L257.2,253.1z"/>
			<path class="st1" d="M257.2,253.1l42.1-209.8c21.8-52.7,98.5-21,76.7,31.8L257.2,253.1z"/>
		</g>
		<g>
			<path class="st0" d="M258.2,253.8L377.4,76c40.3-40.3,99,18.3,58.7,58.7L258.2,253.8z"/>
			<path class="st1" d="M258.2,253.8L377.4,76c40.3-40.3,99,18.3,58.7,58.7L258.2,253.8z"/>
		</g>
		<g>
			<path class="st0" d="M258.9,254.8L437,136.1c52.7-21.8,84.5,54.8,31.8,76.7L258.9,254.8z"/>
			<path class="st1" d="M258.9,254.8L437,136.1c52.7-21.8,84.5,54.8,31.8,76.7L258.9,254.8z"/>
		</g>
		<g>
			<path class="st0" d="M259.2,256l210-41.5c57.1,0,57.1,83,0,83L259.2,256z"/>
			<path class="st1" d="M259.2,256l210-41.5c57.1,0,57.1,83,0,83L259.2,256z"/>
		</g>
		<g>
			<path class="st0" d="M258.9,257.2l209.8,42.1c52.7,21.8,21,98.5-31.8,76.7L258.9,257.2z"/>
			<path class="st1" d="M258.9,257.2l209.8,42.1c52.7,21.8,21,98.5-31.8,76.7L258.9,257.2z"/>
		</g>
		<g>
			<path class="st0" d="M258.2,258.2L436,377.4c40.3,40.3-18.3,99-58.7,58.7L258.2,258.2z"/>
			<path class="st1" d="M258.2,258.2L436,377.4c40.3,40.3-18.3,99-58.7,58.7L258.2,258.2z"/>
		</g>
		<g>
			<path class="st0" d="M257.2,258.9L375.9,437c21.8,52.7-54.8,84.5-76.7,31.8L257.2,258.9z"/>
			<path class="st1" d="M257.2,258.9L375.9,437c21.8,52.7-54.8,84.5-76.7,31.8L257.2,258.9z"/>
		</g>
		<g>
			<path class="st0" d="M256,259.2l41.5,210c0,57.1-83,57.1-83,0L256,259.2z"/>
			<path class="st1" d="M256,259.2l41.5,210c0,57.1-83,57.1-83,0L256,259.2z"/>
		</g>
	</g>
</g>
<g id="Layer_2_00000023982138051144850180000002704562601119113886_">
	<ellipse class="st2" cx="256" cy="256" rx="35" ry="35"/>
</g>
</svg>
